# xmcd
#
# Track frame offsets:
#	150
#	16807
#	32937
#	52450
#	66740
#	83000
#	94950
#	106715
#	121212
#	137725
#	148777
#	164330
#	181142
#	192562
#	203985
#	215975
#	231150
#	244620
#	261087
#	279140
#
# Disc length: 3843 seconds
#
# Revision: 1
# Processed by: cddbd v1.5.2PL0 Copyright (c) Steve Scherf et al.
# Submitted via: EasyCDDAExtractor 2010.6.0.0
#
DISCID=310f0114
DTITLE=Various Artist - Afrikaanse Treffers
DYEAR=1900
DGENRE=Country
TTITLE0=Andr'e Schwarts - Met Liefde
TTITLE1=Rina and G'e - Seisoene
TTITLE2=Carike Keuzenkamp - Papilon
TTITLE3=Johan Stemmet - Hemelkind
TTITLE4=Anneli Van Rooyen - Hardloop Verby
TTITLE5=Sias Reinecke - Parstyd in die Boland
TTITLE6=Alabama - In die Reen
TTITLE7=Riaan Nienaber - Skone Somer
TTITLE8=Danie Botha - Dit Reen In My Hart
TTITLE9=Verskeie Kunstenaars - Die Tekkie-Rag
TTITLE10=G'e Korsten - Liefling Ons Twee Word Ook Ouer
TTITLE11=Rina Hugo - Kom Droom Nou Saam
TTITLE12=Chris Le Roux - Kaalvoet Klong
TTITLE13=Jeanette - Heidi
TTITLE14=a Capella - Laat Die Wiele Rol
TTITLE15=Gert Van Tonder - Die Lewe is Mooi
TTITLE16=Hansie En Sy Orkes - Ek en My Meisie
TTITLE17=Ed Van Wyk - Mooiste Wereld
TTITLE18=Yoti - My Eie Melodie
TTITLE19=Ollie Viljoen - Jim Miller Keurspel 1
EXTD=
EXTT0=
EXTT1=
EXTT2=
EXTT3=
EXTT4=
EXTT5=
EXTT6=
EXTT7=
EXTT8=
EXTT9=
EXTT10=
EXTT11=
EXTT12=
EXTT13=
EXTT14=
EXTT15=
EXTT16=
EXTT17=
EXTT18=
EXTT19=
PLAYORDER=
